<mxfile host="drawio-plugin" modified="2023-06-11T17:10:33.692Z" agent="5.0 (Windows NT 6.2; Win64; x64) AppleWebKit/537.36 (KHTML, like Gecko) Chrome/104.0.5112.102 Safari/537.36" version="20.5.3" etag="s4xMXKawaj1lRTanCM83" type="embed"><diagram id="M0rlyXA9nAuyzJZZ0rbv" name="Page-1"><mxGraphModel dx="1369" dy="1088" grid="1" gridSize="10" guides="1" tooltips="1" connect="1" arrows="1" fold="1" page="1" pageScale="1" pageWidth="850" pageHeight="1100" math="0" shadow="0"><root><mxCell id="0"/><mxCell id="1" parent="0"/><mxCell id="2" value="User" style="rounded=1;arcSize=10;whiteSpace=wrap;html=1;align=center;" vertex="1" parent="1"><mxGeometry x="150" y="240" width="100" height="40" as="geometry"/></mxCell><mxCell id="3" value="Photo" style="rounded=1;arcSize=10;whiteSpace=wrap;html=1;align=center;" vertex="1" parent="1"><mxGeometry x="325" y="150" width="100" height="40" as="geometry"/></mxCell><mxCell id="4" value="" style="edgeStyle=elbowEdgeStyle;fontSize=12;html=1;endArrow=ERzeroToMany;endFill=1;rounded=0;entryX=0;entryY=0.5;entryDx=0;entryDy=0;" edge="1" parent="1" source="2" target="3"><mxGeometry width="100" height="100" relative="1" as="geometry"><mxPoint x="640" y="600" as="sourcePoint"/><mxPoint x="740" y="500" as="targetPoint"/></mxGeometry></mxCell><mxCell id="12" value="Uploads" style="edgeLabel;html=1;align=center;verticalAlign=middle;resizable=0;points=[];" vertex="1" connectable="0" parent="4"><mxGeometry x="-0.4303" relative="1" as="geometry"><mxPoint x="-28" y="-21" as="offset"/></mxGeometry></mxCell><mxCell id="7" value="Activity" style="rounded=1;arcSize=10;whiteSpace=wrap;html=1;align=center;" vertex="1" parent="1"><mxGeometry x="325" y="320" width="100" height="40" as="geometry"/></mxCell><mxCell id="8" value="ActivityType" style="rounded=1;arcSize=10;whiteSpace=wrap;html=1;align=center;" vertex="1" parent="1"><mxGeometry x="530" y="260" width="100" height="40" as="geometry"/></mxCell><mxCell id="10" value="" style="edgeStyle=orthogonalEdgeStyle;fontSize=12;html=1;endArrow=ERzeroToMany;endFill=1;rounded=0;" edge="1" parent="1" source="3" target="7"><mxGeometry width="100" height="100" relative="1" as="geometry"><mxPoint x="640" y="600" as="sourcePoint"/><mxPoint x="740" y="500" as="targetPoint"/></mxGeometry></mxCell><mxCell id="11" value="Included in" style="edgeLabel;html=1;align=center;verticalAlign=middle;resizable=0;points=[];" vertex="1" connectable="0" parent="10"><mxGeometry x="-0.6769" y="-1" relative="1" as="geometry"><mxPoint x="36" y="-1" as="offset"/></mxGeometry></mxCell><mxCell id="14" value="- Temporary showroom&lt;br&gt;- ST images" style="text;html=1;align=left;verticalAlign=middle;resizable=0;points=[];autosize=1;strokeColor=none;fillColor=none;" vertex="1" parent="1"><mxGeometry x="640" y="250" width="150" height="40" as="geometry"/></mxCell><mxCell id="16" value="" style="edgeStyle=orthogonalEdgeStyle;fontSize=12;html=1;endArrow=ERzeroToMany;startArrow=ERmandOne;rounded=0;" edge="1" parent="1" source="8" target="7"><mxGeometry width="100" height="100" relative="1" as="geometry"><mxPoint x="640" y="600" as="sourcePoint"/><mxPoint x="740" y="500" as="targetPoint"/><Array as="points"><mxPoint x="580" y="340"/></Array></mxGeometry></mxCell></root></mxGraphModel></diagram></mxfile>